# xmcd
#
# Track frame offsets: 
#        150
#        13625
#        24305
#        40640
#        57147
#        78997
#        95142
#        105675
#        123107
#        142105
#        169362
#        189902
#
# Disc length: 4440 seconds
#
# Revision: 11
# Processed by: cddbd v1.5.2PL0 Copyright (c) Steve Scherf et al.
# Submitted via: ExactAudioCopy v0.99pb5
#
DISCID=9411560c
DTITLE=Starsailor - Silence Is Easy
DYEAR=2003
DGENRE=Brit-Pop
TTITLE0=Music Was Saved
TTITLE1=Fidelity
TTITLE2=Some of Us
TTITLE3=Silence Is Easy
TTITLE4=Telling Them
TTITLE5=Shark Food
TTITLE6=Bring My Love
TTITLE7=White Dove
TTITLE8=Four to the Floor
TTITLE9=Born Again
TTITLE10=Restless Heart
TTITLE11=Data
EXTD=YEAR: 2003
EXTT0=
EXTT1=
EXTT2=
EXTT3=
EXTT4=
EXTT5=
EXTT6=
EXTT7=
EXTT8=
EXTT9=
EXTT10=
EXTT11=
PLAYORDER=
